# xmcd
#
# Track frame offsets: 
#        150
#        15898
#        39860
#        55555
#        70448
#        86711
#        107459
#        124374
#        154398
#        184776
#        203860
#        234867
#
# Disc length: 3621 seconds
#
# Revision: 1
# Processed by: cddbd v1.5.1PL0 Copyright (c) Steve Scherf et al.
# Submitted via: ExactAudioCopy v0.90b4
#
DISCID=920e230c
DTITLE=Nanci Griffith - Revisited
DYEAR=1900
DGENRE=Folk
TTITLE0=Late Night Grande Hotel (Original Mix)
TTITLE1=St. Teresa (Original Mix)
TTITLE2=Gulf Coast Highway (Original Mix)
TTITLE3=Late Night Grande Hotel (Gomi's Radio Mix)
TTITLE4=Roy Rede's (Piano And Basson Mix)
TTITLE5=St. Teresa (Cyphonix Mix)
TTITLE6=Gulf Coast Highway (Baroque String Mix)
TTITLE7=Boy Wunder's (Extended Mix)
TTITLE8=St. Teresa (Extended Mix)
TTITLE9=Boy Wunder (Radio Edit)
TTITLE10=Boy Wunder's (Twilo Dub Mix)
TTITLE11=Late Night Grande Hotel (Gomi's Extended Arena Mix)
EXTD=
EXTT0=
EXTT1=
EXTT2=
EXTT3=
EXTT4=
EXTT5=
EXTT6=
EXTT7=
EXTT8=
EXTT9=
EXTT10=
EXTT11=
PLAYORDER=
